<?xml version='1.0' encoding='UTF-8' standalone='no'?>
<svg viewBox="0 0 364 256" xmlns="http://www.w3.org/2000/svg" width="364pt" height="256pt" xmlns:xlink="http://www.w3.org/1999/xlink">
 <title>Figure 1</title>
 <desc>
Creator: GL2PS 1.4.2, (C) 1999-2020 C. Geuzaine
For: Octave
CreationDate: Sat Jun  3 10:59:39 2023
</desc>
 <defs/>
 <polygon points="0,0 364,0 364,256 0,256" fill="#ffffff"/>
 <g>
  <polygon shape-rendering="crispEdges" points="0,256 364,256 364,0 0,0" fill="#ffffff"/>
  <clipPath id="cp00364256">
   <polygon points="0,256 364,256 364,0 0,0"/>
  </clipPath>
  <g clip-path="url(#cp00364256)">
   <polygon shape-rendering="crispEdges" points="47.4353,21 47.4353,227.904 330.223,227.904 330.223,21" fill="#ffffff"/>
   <polyline stroke="#262626" stroke-linecap="butt" stroke-linejoin="miter" points="47.4353,227.904 47.4353,225.078" stroke-width="0.5" fill="none"/>
   <polyline stroke="#262626" stroke-linecap="butt" stroke-linejoin="miter" points="103.993,227.904 103.993,225.078" stroke-width="0.5" fill="none"/>
   <polyline stroke="#262626" stroke-linecap="butt" stroke-linejoin="miter" points="160.55,227.904 160.55,225.078" stroke-width="0.5" fill="none"/>
   <polyline stroke="#262626" stroke-linecap="butt" stroke-linejoin="miter" points="217.108,227.904 217.108,225.078" stroke-width="0.5" fill="none"/>
   <polyline stroke="#262626" stroke-linecap="butt" stroke-linejoin="miter" points="273.665,227.904 273.665,225.078" stroke-width="0.5" fill="none"/>
   <polyline stroke="#262626" stroke-linecap="butt" stroke-linejoin="miter" points="330.223,227.904 330.223,225.078" stroke-width="0.5" fill="none"/>
   <g font-weight="normal" transform="translate(44.4353,243.401) rotate(-0,3,-8)" xml:space="preserve" font-family="FreeSans" font-size="10" font-style="normal">
    <text y="-0" fill="rgb(38,38,38)" x="0 ">0</text>
   </g>
   <g font-weight="normal" transform="translate(96.4928,243.401) rotate(-0,7.5,-8)" xml:space="preserve" font-family="FreeSans" font-size="10" font-style="normal">
    <text y="-0" fill="rgb(38,38,38)" x="0 6 9 ">0.2</text>
   </g>
   <g font-weight="normal" transform="translate(153.05,243.401) rotate(-0,7.5,-8)" xml:space="preserve" font-family="FreeSans" font-size="10" font-style="normal">
    <text y="-0" fill="rgb(38,38,38)" x="0 6 9 ">0.4</text>
   </g>
   <g font-weight="normal" transform="translate(209.608,243.401) rotate(-0,7.5,-8)" xml:space="preserve" font-family="FreeSans" font-size="10" font-style="normal">
    <text y="-0" fill="rgb(38,38,38)" x="0 6 9 ">0.6</text>
   </g>
   <g font-weight="normal" transform="translate(266.165,243.401) rotate(-0,7.5,-8)" xml:space="preserve" font-family="FreeSans" font-size="10" font-style="normal">
    <text y="-0" fill="rgb(38,38,38)" x="0 6 9 ">0.8</text>
   </g>
   <g font-weight="normal" transform="translate(327.223,243.401) rotate(-0,3,-8)" xml:space="preserve" font-family="FreeSans" font-size="10" font-style="normal">
    <text y="-0" fill="rgb(38,38,38)" x="0 ">1</text>
   </g>
   <polyline stroke="#262626" stroke-linecap="butt" stroke-linejoin="miter" points="47.4353,227.904 50.261,227.904" stroke-width="0.5" fill="none"/>
   <polyline stroke="#262626" stroke-linecap="butt" stroke-linejoin="miter" points="47.4353,186.524 50.261,186.524" stroke-width="0.5" fill="none"/>
   <polyline stroke="#262626" stroke-linecap="butt" stroke-linejoin="miter" points="47.4353,145.143 50.261,145.143" stroke-width="0.5" fill="none"/>
   <polyline stroke="#262626" stroke-linecap="butt" stroke-linejoin="miter" points="47.4353,103.762 50.261,103.762" stroke-width="0.5" fill="none"/>
   <polyline stroke="#262626" stroke-linecap="butt" stroke-linejoin="miter" points="47.4353,62.3809 50.261,62.3809" stroke-width="0.5" fill="none"/>
   <polyline stroke="#262626" stroke-linecap="butt" stroke-linejoin="miter" points="47.4353,21 50.261,21" stroke-width="0.5" fill="none"/>
   <g font-weight="normal" transform="translate(36.4391,231.904) rotate(-0,6,-4)" xml:space="preserve" font-family="FreeSans" font-size="10" font-style="normal">
    <text y="-0" fill="rgb(38,38,38)" x="0 ">0</text>
   </g>
   <g font-weight="normal" transform="translate(27.4391,190.524) rotate(-0,15,-4)" xml:space="preserve" font-family="FreeSans" font-size="10" font-style="normal">
    <text y="-0" fill="rgb(38,38,38)" x="0 6 9 ">0.2</text>
   </g>
   <g font-weight="normal" transform="translate(27.4391,149.143) rotate(-0,15,-4)" xml:space="preserve" font-family="FreeSans" font-size="10" font-style="normal">
    <text y="-0" fill="rgb(38,38,38)" x="0 6 9 ">0.4</text>
   </g>
   <g font-weight="normal" transform="translate(27.4391,107.762) rotate(-0,15,-4)" xml:space="preserve" font-family="FreeSans" font-size="10" font-style="normal">
    <text y="-0" fill="rgb(38,38,38)" x="0 6 9 ">0.6</text>
   </g>
   <g font-weight="normal" transform="translate(27.4391,66.3809) rotate(-0,15,-4)" xml:space="preserve" font-family="FreeSans" font-size="10" font-style="normal">
    <text y="-0" fill="rgb(38,38,38)" x="0 6 9 ">0.8</text>
   </g>
   <g font-weight="normal" transform="translate(36.4391,25) rotate(-0,6,-4)" xml:space="preserve" font-family="FreeSans" font-size="10" font-style="normal">
    <text y="-0" fill="rgb(38,38,38)" x="0 ">1</text>
   </g>
   <polyline stroke="#262626" stroke-dasharray="16,0" stroke-linecap="square" stroke-linejoin="miter" points="47.4353,227.904 330.223,227.904" stroke-width="0.5" fill="none"/>
   <polyline stroke="#262626" stroke-dasharray="16,0" stroke-linecap="square" stroke-linejoin="miter" points="47.4353,227.904 47.4353,21" stroke-width="0.5" fill="none"/>
   <g font-weight="bold" transform="translate(40.829,11) rotate(-0,148,0)" xml:space="preserve" font-family="FreeSans" font-size="11" font-style="normal">
    <text y="-2" fill="rgb(0,0,0)" x="0 8 11 17 23 29 35 42 49 56 66 69 72 80 83 90 96 102 109 116 119 122 130 136 143 149 156 164 167 ">Black=EXPM, Blue=EF, Red=EB, </text>
    <text y="-2" fill="rgb(0,0,0)" x="170 ">Δ</text>
    <text y="-2" fill="rgb(0,0,0)" x="178 181 187 193 199 202 208 214 217 220 227 233 239 242 248 251 254 262 266 272 278 284 290 "> x=0.01, T=0.1, Nt=2001</text>
   </g>
   <polyline stroke="#000000" stroke-linecap="butt" stroke-linejoin="round" points="47.4353,227.904 50.2632,221.405 53.091,214.913 55.9189,208.433 58.7468,201.972 61.5747,195.537 64.4025,189.134 67.2304,182.77 70.0583,176.449 72.8862,170.18 75.714,163.967 78.5419,157.818 81.3698,151.738 84.1976,145.733 87.0255,139.809 89.8534,133.972 92.6813,128.227 95.5091,122.582 98.337,117.039 101.165,111.607 103.993,106.289 106.821,101.091 109.648,96.0186 112.476,91.0761 115.304,86.2686 118.132,81.6009 120.96,77.0776 123.788,72.7031 126.616,68.4818 129.444,64.4179 132.271,60.5152 135.099,56.7778 137.927,53.2092 140.755,49.8131 143.583,46.5927 146.411,43.5512 149.239,40.6917 152.067,38.0169 154.894,35.5296 157.722,33.232 160.55,31.1266 163.378,29.2154 166.206,27.5003 169.034,25.9829 171.862,24.6649 174.69,23.5473 177.517,22.6315 180.345,21.9182 183.173,21.4083 186.001,21.1021 188.829,21 191.657,21.1021 194.485,21.4083 197.313,21.9182 200.14,22.6315 202.968,23.5473 205.796,24.6649 208.624,25.9829 211.452,27.5003 214.28,29.2154 217.108,31.1266 219.936,33.232 222.763,35.5296 225.591,38.0169 228.419,40.6917 231.247,43.5512 234.075,46.5927 236.903,49.8131 239.731,53.2092 242.559,56.7778 245.386,60.5152 248.214,64.4179 251.042,68.4818 253.87,72.7031 256.698,77.0776 259.526,81.6009 262.354,86.2686 265.182,91.0761 268.009,96.0186 270.837,101.091 273.665,106.289 276.493,111.607 279.321,117.039 282.149,122.582 284.977,128.227 287.805,133.972 290.632,139.809 293.46,145.733 296.288,151.738 299.116,157.818 301.944,163.967 304.772,170.18 307.6,176.449 310.428,182.77 313.255,189.134 316.083,195.537 318.911,201.972 321.739,208.433 324.567,214.913 327.395,221.405 330.223,227.904" stroke-width="0.5" fill="none"/>
   <polyline stroke="#0000ff" stroke-linecap="butt" stroke-linejoin="round" points="47.4353,227.904 50.2632,221.405 53.091,214.913 55.9189,208.433 58.7468,201.972 61.5747,195.537 64.4025,189.134 67.2304,182.77 70.0583,176.449 72.8862,170.18 75.714,163.967 78.5419,157.818 81.3698,151.738 84.1976,145.733 87.0255,139.809 89.8534,133.972 92.6813,128.227 95.5091,122.582 98.337,117.039 101.165,111.607 103.993,106.289 106.821,101.091 109.648,96.0186 112.476,91.0761 115.304,86.2686 118.132,81.6009 120.96,77.0776 123.788,72.7031 126.616,68.4818 129.444,64.4179 132.271,60.5152 135.099,56.7778 137.927,53.2092 140.755,49.8131 143.583,46.5927 146.411,43.5512 149.239,40.6917 152.067,38.0169 154.894,35.5296 157.722,33.232 160.55,31.1266 163.378,29.2154 166.206,27.5003 169.034,25.9829 171.862,24.6649 174.69,23.5473 177.517,22.6315 180.345,21.9182 183.173,21.4083 186.001,21.1021 188.829,21 191.657,21.1021 194.485,21.4083 197.313,21.9182 200.14,22.6315 202.968,23.5473 205.796,24.6649 208.624,25.9829 211.452,27.5003 214.28,29.2154 217.108,31.1266 219.936,33.232 222.763,35.5296 225.591,38.0169 228.419,40.6917 231.247,43.5512 234.075,46.5927 236.903,49.8131 239.731,53.2092 242.559,56.7778 245.386,60.5152 248.214,64.4179 251.042,68.4818 253.87,72.7031 256.698,77.0776 259.526,81.6009 262.354,86.2686 265.182,91.0761 268.009,96.0186 270.837,101.091 273.665,106.289 276.493,111.607 279.321,117.039 282.149,122.582 284.977,128.227 287.805,133.972 290.632,139.809 293.46,145.733 296.288,151.738 299.116,157.818 301.944,163.967 304.772,170.18 307.6,176.449 310.428,182.77 313.255,189.134 316.083,195.537 318.911,201.972 321.739,208.433 324.567,214.913 327.395,221.405 330.223,227.904" stroke-width="0.5" fill="none"/>
   <polyline stroke="#ff0000" stroke-linecap="butt" stroke-linejoin="round" points="47.4353,227.904 50.2632,221.405 53.091,214.913 55.9189,208.433 58.7468,201.972 61.5747,195.537 64.4025,189.134 67.2304,182.77 70.0583,176.449 72.8862,170.18 75.714,163.967 78.5419,157.818 81.3698,151.738 84.1976,145.733 87.0255,139.809 89.8534,133.972 92.6813,128.227 95.5091,122.582 98.337,117.039 101.165,111.607 103.993,106.289 106.821,101.091 109.648,96.0186 112.476,91.0761 115.304,86.2686 118.132,81.6009 120.96,77.0776 123.788,72.7031 126.616,68.4818 129.444,64.4179 132.271,60.5152 135.099,56.7778 137.927,53.2092 140.755,49.8131 143.583,46.5927 146.411,43.5512 149.239,40.6917 152.067,38.0169 154.894,35.5296 157.722,33.232 160.55,31.1266 163.378,29.2154 166.206,27.5003 169.034,25.9829 171.862,24.6649 174.69,23.5473 177.517,22.6315 180.345,21.9182 183.173,21.4083 186.001,21.1021 188.829,21 191.657,21.1021 194.485,21.4083 197.313,21.9182 200.14,22.6315 202.968,23.5473 205.796,24.6649 208.624,25.9829 211.452,27.5003 214.28,29.2154 217.108,31.1266 219.936,33.232 222.763,35.5296 225.591,38.0169 228.419,40.6917 231.247,43.5512 234.075,46.5927 236.903,49.8131 239.731,53.2092 242.559,56.7778 245.386,60.5152 248.214,64.4179 251.042,68.4818 253.87,72.7031 256.698,77.0776 259.526,81.6009 262.354,86.2686 265.182,91.0761 268.009,96.0186 270.837,101.091 273.665,106.289 276.493,111.607 279.321,117.039 282.149,122.582 284.977,128.227 287.805,133.972 290.632,139.809 293.46,145.733 296.288,151.738 299.116,157.818 301.944,163.967 304.772,170.18 307.6,176.449 310.428,182.77 313.255,189.134 316.083,195.537 318.911,201.972 321.739,208.433 324.567,214.913 327.395,221.405 330.223,227.904" stroke-width="0.5" fill="none"/>
   <polyline stroke="#000000" stroke-linecap="butt" stroke-linejoin="round" points="47.4353,227.904 50.2632,222.57 53.091,217.24 55.9189,211.921 58.7468,206.617 61.5747,201.335 64.4025,196.079 67.2304,190.854 70.0583,185.666 72.8862,180.519 75.714,175.42 78.5419,170.372 81.3698,165.381 84.1976,160.451 87.0255,155.588 89.8534,150.797 92.6813,146.081 95.5091,141.447 98.337,136.897 101.165,132.438 103.993,128.073 106.821,123.806 109.648,119.642 112.476,115.585 115.304,111.638 118.132,107.806 120.96,104.093 123.788,100.502 126.616,97.0373 129.444,93.7012 132.271,90.4977 135.099,87.4297 137.927,84.5003 140.755,81.7124 143.583,79.0689 146.411,76.5722 149.239,74.2249 152.067,72.0292 154.894,69.9874 157.722,68.1014 160.55,66.3731 163.378,64.8042 166.206,63.3963 169.034,62.1507 171.862,61.0687 174.69,60.1514 177.517,59.3996 180.345,58.8141 183.173,58.3954 186.001,58.1441 188.829,58.0603 191.657,58.1441 194.485,58.3954 197.313,58.8141 200.14,59.3996 202.968,60.1514 205.796,61.0687 208.624,62.1507 211.452,63.3963 214.28,64.8042 217.108,66.3731 219.936,68.1014 222.763,69.9874 225.591,72.0292 228.419,74.2249 231.247,76.5722 234.075,79.0689 236.903,81.7124 239.731,84.5003 242.559,87.4297 245.386,90.4977 248.214,93.7012 251.042,97.0373 253.87,100.502 256.698,104.093 259.526,107.806 262.354,111.638 265.182,115.585 268.009,119.642 270.837,123.806 273.665,128.073 276.493,132.438 279.321,136.897 282.149,141.447 284.977,146.081 287.805,150.797 290.632,155.588 293.46,160.451 296.288,165.381 299.116,170.372 301.944,175.42 304.772,180.519 307.6,185.666 310.428,190.854 313.255,196.079 316.083,201.335 318.911,206.617 321.739,211.921 324.567,217.24 327.395,222.57 330.223,227.904" stroke-width="0.5" fill="none"/>
   <polyline stroke="#0000ff" stroke-linecap="butt" stroke-linejoin="round" points="47.4353,227.904 50.2632,222.57 53.091,217.24 55.9189,211.921 58.7468,206.618 61.5747,201.336 64.4025,196.08 67.2304,190.856 70.0583,185.668 72.8862,180.522 75.714,175.422 78.5419,170.375 81.3698,165.384 84.1976,160.454 87.0255,155.592 89.8534,150.801 92.6813,146.085 95.5091,141.451 98.337,136.902 101.165,132.443 103.993,128.077 106.821,123.811 109.648,119.647 112.476,115.59 115.304,111.644 118.132,107.812 120.96,104.099 123.788,100.509 126.616,97.0437 129.444,93.7078 132.271,90.5043 135.099,87.4365 137.927,84.5073 140.755,81.7196 143.583,79.0761 146.411,76.5796 149.239,74.2323 152.067,72.0368 154.894,69.995 157.722,68.1091 160.55,66.3809 163.378,64.8121 166.206,63.4043 169.034,62.1588 171.862,61.0768 174.69,60.1595 177.517,59.4078 180.345,58.8223 183.173,58.4037 186.001,58.1524 188.829,58.0686 191.657,58.1524 194.485,58.4037 197.313,58.8223 200.14,59.4078 202.968,60.1595 205.796,61.0768 208.624,62.1588 211.452,63.4043 214.28,64.8121 217.108,66.3809 219.936,68.1091 222.763,69.995 225.591,72.0368 228.419,74.2323 231.247,76.5796 234.075,79.0761 236.903,81.7196 239.731,84.5073 242.559,87.4365 245.386,90.5043 248.214,93.7078 251.042,97.0437 253.87,100.509 256.698,104.099 259.526,107.812 262.354,111.644 265.182,115.59 268.009,119.647 270.837,123.811 273.665,128.077 276.493,132.443 279.321,136.902 282.149,141.451 284.977,146.085 287.805,150.801 290.632,155.592 293.46,160.454 296.288,165.384 299.116,170.375 301.944,175.422 304.772,180.522 307.6,185.668 310.428,190.856 313.255,196.08 316.083,201.336 318.911,206.618 321.739,211.921 324.567,217.24 327.395,222.57 330.223,227.904" stroke-width="0.5" fill="none"/>
   <polyline stroke="#ff0000" stroke-linecap="butt" stroke-linejoin="round" points="47.4353,227.904 50.2632,222.569 53.091,217.239 55.9189,211.92 58.7468,206.616 61.5747,201.334 64.4025,196.077 67.2304,190.852 70.0583,185.664 72.8862,180.517 75.714,175.417 78.5419,170.369 81.3698,165.378 84.1976,160.448 87.0255,155.585 89.8534,150.793 92.6813,146.077 95.5091,141.443 98.337,136.893 101.165,132.433 103.993,128.068 106.821,123.801 109.648,119.636 112.476,115.579 115.304,111.632 118.132,107.801 120.96,104.087 123.788,100.496 126.616,97.0309 129.444,93.6947 132.271,90.491 135.099,87.4228 137.927,84.4933 140.755,81.7053 143.583,79.0616 146.411,76.5648 149.239,74.2174 152.067,72.0216 154.894,69.9797 157.722,68.0936 160.55,66.3652 163.378,64.7962 166.206,63.3883 169.034,62.1426 171.862,61.0606 174.69,60.1432 177.517,59.3914 180.345,58.8058 183.173,58.3872 186.001,58.1358 188.829,58.052 191.657,58.1358 194.485,58.3872 197.313,58.8058 200.14,59.3914 202.968,60.1432 205.796,61.0606 208.624,62.1426 211.452,63.3883 214.28,64.7962 217.108,66.3652 219.936,68.0936 222.763,69.9797 225.591,72.0216 228.419,74.2174 231.247,76.5648 234.075,79.0616 236.903,81.7053 239.731,84.4933 242.559,87.4228 245.386,90.491 248.214,93.6947 251.042,97.0309 253.87,100.496 256.698,104.087 259.526,107.801 262.354,111.632 265.182,115.579 268.009,119.636 270.837,123.801 273.665,128.068 276.493,132.433 279.321,136.893 282.149,141.443 284.977,146.077 287.805,150.793 290.632,155.585 293.46,160.448 296.288,165.378 299.116,170.369 301.944,175.417 304.772,180.517 307.6,185.664 310.428,190.852 313.255,196.077 316.083,201.334 318.911,206.616 321.739,211.92 324.567,217.239 327.395,222.569 330.223,227.904" stroke-width="0.5" fill="none"/>
   <polyline stroke="#000000" stroke-linecap="butt" stroke-linejoin="round" points="47.4353,227.904 50.2632,223.525 53.091,219.15 55.9189,214.784 58.7468,210.43 61.5747,206.094 64.4025,201.779 67.2304,197.49 70.0583,193.232 72.8862,189.007 75.714,184.821 78.5419,180.677 81.3698,176.58 84.1976,172.533 87.0255,168.541 89.8534,164.608 92.6813,160.737 95.5091,156.933 98.337,153.198 101.165,149.538 103.993,145.954 106.821,142.452 109.648,139.034 112.476,135.703 115.304,132.464 118.132,129.318 120.96,126.27 123.788,123.322 126.616,120.478 129.444,117.739 132.271,115.11 135.099,112.591 137.927,110.187 140.755,107.898 143.583,105.728 146.411,103.679 149.239,101.752 152.067,99.9492 154.894,98.2731 157.722,96.7249 160.55,95.3062 163.378,94.0184 166.206,92.8626 169.034,91.8402 171.862,90.952 174.69,90.199 177.517,89.5818 180.345,89.1012 183.173,88.7576 186.001,88.5512 188.829,88.4824 191.657,88.5512 194.485,88.7576 197.313,89.1012 200.14,89.5818 202.968,90.199 205.796,90.952 208.624,91.8402 211.452,92.8626 214.28,94.0184 217.108,95.3062 219.936,96.7249 222.763,98.2731 225.591,99.9492 228.419,101.752 231.247,103.679 234.075,105.728 236.903,107.898 239.731,110.187 242.559,112.591 245.386,115.11 248.214,117.739 251.042,120.478 253.87,123.322 256.698,126.27 259.526,129.318 262.354,132.464 265.182,135.703 268.009,139.034 270.837,142.452 273.665,145.954 276.493,149.538 279.321,153.198 282.149,156.933 284.977,160.737 287.805,164.608 290.632,168.541 293.46,172.533 296.288,176.58 299.116,180.677 301.944,184.821 304.772,189.007 307.6,193.232 310.428,197.49 313.255,201.779 316.083,206.094 318.911,210.43 321.739,214.784 324.567,219.15 327.395,223.525 330.223,227.904" stroke-width="0.5" fill="none"/>
   <polyline stroke="#0000ff" stroke-linecap="butt" stroke-linejoin="round" points="47.4353,227.904 50.2632,223.526 53.091,219.151 55.9189,214.785 58.7468,210.432 61.5747,206.096 64.4025,201.782 67.2304,197.493 70.0583,193.235 72.8862,189.011 75.714,184.825 78.5419,180.682 81.3698,176.585 84.1976,172.539 87.0255,168.547 89.8534,164.614 92.6813,160.744 95.5091,156.94 98.337,153.206 101.165,149.545 103.993,145.962 106.821,142.46 109.648,139.042 112.476,135.712 115.304,132.473 118.132,129.328 120.96,126.28 123.788,123.333 126.616,120.488 129.444,117.75 132.271,115.121 135.099,112.602 137.927,110.198 140.755,107.91 143.583,105.74 146.411,103.691 149.239,101.764 152.067,99.9617 154.894,98.2858 157.722,96.7377 160.55,95.3192 163.378,94.0314 166.206,92.8758 169.034,91.8534 171.862,90.9653 174.69,90.2124 177.517,89.5953 180.345,89.1147 183.173,88.7711 186.001,88.5648 188.829,88.496 191.657,88.5648 194.485,88.7711 197.313,89.1147 200.14,89.5953 202.968,90.2124 205.796,90.9653 208.624,91.8534 211.452,92.8758 214.28,94.0314 217.108,95.3192 219.936,96.7377 222.763,98.2858 225.591,99.9617 228.419,101.764 231.247,103.691 234.075,105.74 236.903,107.91 239.731,110.198 242.559,112.602 245.386,115.121 248.214,117.75 251.042,120.488 253.87,123.333 256.698,126.28 259.526,129.328 262.354,132.473 265.182,135.712 268.009,139.042 270.837,142.46 273.665,145.962 276.493,149.545 279.321,153.206 282.149,156.94 284.977,160.744 287.805,164.614 290.632,168.547 293.46,172.539 296.288,176.585 299.116,180.682 301.944,184.825 304.772,189.011 307.6,193.235 310.428,197.493 313.255,201.782 316.083,206.096 318.911,210.432 321.739,214.785 324.567,219.151 327.395,223.526 330.223,227.904" stroke-width="0.5" fill="none"/>
   <polyline stroke="#ff0000" stroke-linecap="butt" stroke-linejoin="round" points="47.4353,227.904 50.2632,223.525 53.091,219.149 55.9189,214.782 58.7468,210.429 61.5747,206.092 64.4025,201.777 67.2304,197.488 70.0583,193.228 72.8862,189.003 75.714,184.816 78.5419,180.672 81.3698,176.575 84.1976,172.528 87.0255,168.536 89.8534,164.602 92.6813,160.731 95.5091,156.926 98.337,153.191 101.165,149.53 103.993,145.946 106.821,142.443 109.648,139.025 112.476,135.694 115.304,132.454 118.132,129.309 120.96,126.26 123.788,123.312 126.616,120.467 129.444,117.729 132.271,115.099 135.099,112.58 137.927,110.175 140.755,107.886 143.583,105.716 146.411,103.666 149.239,101.739 152.067,99.9368 154.894,98.2605 157.722,96.7122 160.55,95.2933 163.378,94.0053 166.206,92.8495 169.034,91.8269 171.862,90.9386 174.69,90.1855 177.517,89.5683 180.345,89.0877 183.173,88.744 186.001,88.5377 188.829,88.4689 191.657,88.5377 194.485,88.744 197.313,89.0877 200.14,89.5683 202.968,90.1855 205.796,90.9386 208.624,91.8269 211.452,92.8495 214.28,94.0053 217.108,95.2933 219.936,96.7122 222.763,98.2605 225.591,99.9368 228.419,101.739 231.247,103.666 234.075,105.716 236.903,107.886 239.731,110.175 242.559,112.58 245.386,115.099 248.214,117.729 251.042,120.467 253.87,123.312 256.698,126.26 259.526,129.309 262.354,132.454 265.182,135.694 268.009,139.025 270.837,142.443 273.665,145.946 276.493,149.53 279.321,153.191 282.149,156.926 284.977,160.731 287.805,164.602 290.632,168.536 293.46,172.528 296.288,176.575 299.116,180.672 301.944,184.816 304.772,189.003 307.6,193.228 310.428,197.488 313.255,201.777 316.083,206.092 318.911,210.429 321.739,214.782 324.567,219.149 327.395,223.525 330.223,227.904" stroke-width="0.5" fill="none"/>
   <polyline stroke="#000000" stroke-linecap="butt" stroke-linejoin="round" points="47.4353,227.904 50.2632,224.31 53.091,220.718 55.9189,217.134 58.7468,213.56 61.5747,210.001 64.4025,206.459 67.2304,202.938 70.0583,199.442 72.8862,195.974 75.714,192.538 78.5419,189.136 81.3698,185.773 84.1976,182.451 87.0255,179.174 89.8534,175.946 92.6813,172.768 95.5091,169.645 98.337,166.58 101.165,163.575 103.993,160.633 106.821,157.758 109.648,154.952 112.476,152.218 115.304,149.559 118.132,146.977 120.96,144.475 123.788,142.055 126.616,139.72 129.444,137.472 132.271,135.313 135.099,133.246 137.927,131.272 140.755,129.393 143.583,127.612 146.411,125.93 149.239,124.348 152.067,122.868 154.894,121.492 157.722,120.222 160.55,119.057 163.378,118 166.206,117.051 169.034,116.212 171.862,115.483 174.69,114.864 177.517,114.358 180.345,113.963 183.173,113.681 186.001,113.512 188.829,113.455 191.657,113.512 194.485,113.681 197.313,113.963 200.14,114.358 202.968,114.864 205.796,115.483 208.624,116.212 211.452,117.051 214.28,118 217.108,119.057 219.936,120.222 222.763,121.492 225.591,122.868 228.419,124.348 231.247,125.93 234.075,127.612 236.903,129.393 239.731,131.272 242.559,133.246 245.386,135.313 248.214,137.472 251.042,139.72 253.87,142.055 256.698,144.475 259.526,146.977 262.354,149.559 265.182,152.218 268.009,154.952 270.837,157.758 273.665,160.633 276.493,163.575 279.321,166.58 282.149,169.645 284.977,172.768 287.805,175.946 290.632,179.174 293.46,182.451 296.288,185.773 299.116,189.136 301.944,192.538 304.772,195.974 307.6,199.442 310.428,202.938 313.255,206.459 316.083,210.001 318.911,213.56 321.739,217.134 324.567,220.718 327.395,224.31 330.223,227.904" stroke-width="0.5" fill="none"/>
   <polyline stroke="#0000ff" stroke-linecap="butt" stroke-linejoin="round" points="47.4353,227.904 50.2632,224.31 53.091,220.719 55.9189,217.135 58.7468,213.562 61.5747,210.003 64.4025,206.462 67.2304,202.942 70.0583,199.446 72.8862,195.979 75.714,192.543 78.5419,189.142 81.3698,185.779 84.1976,182.458 87.0255,179.182 89.8534,175.953 92.6813,172.776 95.5091,169.654 98.337,166.589 101.165,163.584 103.993,160.643 106.821,157.768 109.648,154.963 112.476,152.229 115.304,149.57 118.132,146.989 120.96,144.487 123.788,142.068 126.616,139.733 129.444,137.485 132.271,135.327 135.099,133.26 137.927,131.286 140.755,129.408 143.583,127.627 146.411,125.945 149.239,124.363 152.067,122.884 154.894,121.508 157.722,120.237 160.55,119.073 163.378,118.016 166.206,117.067 169.034,116.228 171.862,115.499 174.69,114.881 177.517,114.374 180.345,113.98 183.173,113.698 186.001,113.529 188.829,113.472 191.657,113.529 194.485,113.698 197.313,113.98 200.14,114.374 202.968,114.881 205.796,115.499 208.624,116.228 211.452,117.067 214.28,118.016 217.108,119.073 219.936,120.237 222.763,121.508 225.591,122.884 228.419,124.363 231.247,125.945 234.075,127.627 236.903,129.408 239.731,131.286 242.559,133.26 245.386,135.327 248.214,137.485 251.042,139.733 253.87,142.068 256.698,144.487 259.526,146.989 262.354,149.57 265.182,152.229 268.009,154.963 270.837,157.768 273.665,160.643 276.493,163.584 279.321,166.589 282.149,169.654 284.977,172.776 287.805,175.953 290.632,179.182 293.46,182.458 296.288,185.779 299.116,189.142 301.944,192.543 304.772,195.979 307.6,199.446 310.428,202.942 313.255,206.462 316.083,210.003 318.911,213.562 321.739,217.135 324.567,220.719 327.395,224.31 330.223,227.904" stroke-width="0.5" fill="none"/>
   <polyline stroke="#ff0000" stroke-linecap="butt" stroke-linejoin="round" points="47.4353,227.904 50.2632,224.309 53.091,220.717 55.9189,217.132 58.7468,213.558 61.5747,209.998 64.4025,206.456 67.2304,202.935 70.0583,199.438 72.8862,195.97 75.714,192.533 78.5419,189.131 81.3698,185.767 84.1976,182.445 87.0255,179.167 89.8534,175.938 92.6813,172.76 95.5091,169.637 98.337,166.571 101.165,163.565 103.993,160.623 106.821,157.748 109.648,154.941 112.476,152.207 115.304,149.547 118.132,146.965 120.96,144.462 123.788,142.042 126.616,139.707 129.444,137.459 132.271,135.3 135.099,133.232 137.927,131.258 140.755,129.379 143.583,127.597 146.411,125.915 149.239,124.333 152.067,122.853 154.894,121.477 157.722,120.206 160.55,119.041 163.378,117.984 166.206,117.035 169.034,116.195 171.862,115.466 174.69,114.848 177.517,114.341 180.345,113.947 183.173,113.665 186.001,113.495 188.829,113.439 191.657,113.495 194.485,113.665 197.313,113.947 200.14,114.341 202.968,114.848 205.796,115.466 208.624,116.195 211.452,117.035 214.28,117.984 217.108,119.041 219.936,120.206 222.763,121.477 225.591,122.853 228.419,124.333 231.247,125.915 234.075,127.597 236.903,129.379 239.731,131.258 242.559,133.232 245.386,135.3 248.214,137.459 251.042,139.707 253.87,142.042 256.698,144.462 259.526,146.965 262.354,149.547 265.182,152.207 268.009,154.941 270.837,157.748 273.665,160.623 276.493,163.565 279.321,166.571 282.149,169.637 284.977,172.76 287.805,175.938 290.632,179.167 293.46,182.445 296.288,185.767 299.116,189.131 301.944,192.533 304.772,195.97 307.6,199.438 310.428,202.935 313.255,206.456 316.083,209.998 318.911,213.558 321.739,217.132 324.567,220.717 327.395,224.309 330.223,227.904" stroke-width="0.5" fill="none"/>
   <polyline stroke="#000000" stroke-linecap="butt" stroke-linejoin="round" points="47.4353,227.904 50.2632,224.953 53.091,222.005 55.9189,219.063 58.7468,216.129 61.5747,213.208 64.4025,210.3 67.2304,207.41 70.0583,204.54 72.8862,201.693 75.714,198.873 78.5419,196.08 81.3698,193.319 84.1976,190.593 87.0255,187.903 89.8534,185.252 92.6813,182.644 95.5091,180.08 98.337,177.564 101.165,175.097 103.993,172.683 106.821,170.322 109.648,168.019 112.476,165.775 115.304,163.592 118.132,161.472 120.96,159.418 123.788,157.432 126.616,155.515 129.444,153.67 132.271,151.898 135.099,150.201 137.927,148.581 140.755,147.038 143.583,145.576 146.411,144.195 149.239,142.897 152.067,141.682 154.894,140.553 157.722,139.509 160.55,138.553 163.378,137.686 166.206,136.907 169.034,136.218 171.862,135.619 174.69,135.112 177.517,134.696 180.345,134.372 183.173,134.141 186.001,134.002 188.829,133.955 191.657,134.002 194.485,134.141 197.313,134.372 200.14,134.696 202.968,135.112 205.796,135.619 208.624,136.218 211.452,136.907 214.28,137.686 217.108,138.553 219.936,139.509 222.763,140.553 225.591,141.682 228.419,142.897 231.247,144.195 234.075,145.576 236.903,147.038 239.731,148.581 242.559,150.201 245.386,151.898 248.214,153.67 251.042,155.515 253.87,157.432 256.698,159.418 259.526,161.472 262.354,163.592 265.182,165.775 268.009,168.019 270.837,170.322 273.665,172.683 276.493,175.097 279.321,177.564 282.149,180.08 284.977,182.644 287.805,185.252 290.632,187.903 293.46,190.593 296.288,193.319 299.116,196.08 301.944,198.873 304.772,201.693 307.6,204.54 310.428,207.41 313.255,210.3 316.083,213.208 318.911,216.129 321.739,219.063 324.567,222.005 327.395,224.953 330.223,227.904" stroke-width="0.5" fill="none"/>
   <polyline stroke="#0000ff" stroke-linecap="butt" stroke-linejoin="round" points="47.4353,227.904 50.2632,224.954 53.091,222.006 55.9189,219.065 58.7468,216.132 61.5747,213.21 64.4025,210.304 67.2304,207.414 70.0583,204.545 72.8862,201.699 75.714,198.878 78.5419,196.087 81.3698,193.326 84.1976,190.6 87.0255,187.911 89.8534,185.261 92.6813,182.653 95.5091,180.09 98.337,177.574 101.165,175.107 103.993,172.693 106.821,170.334 109.648,168.031 112.476,165.787 115.304,163.604 118.132,161.485 120.96,159.432 123.788,157.446 126.616,155.529 129.444,153.685 132.271,151.913 135.099,150.216 137.927,148.596 140.755,147.054 143.583,145.592 146.411,144.211 149.239,142.913 152.067,141.699 154.894,140.57 157.722,139.527 160.55,138.571 163.378,137.703 166.206,136.925 169.034,136.236 171.862,135.637 174.69,135.13 177.517,134.714 180.345,134.39 183.173,134.159 186.001,134.02 188.829,133.974 191.657,134.02 194.485,134.159 197.313,134.39 200.14,134.714 202.968,135.13 205.796,135.637 208.624,136.236 211.452,136.925 214.28,137.703 217.108,138.571 219.936,139.527 222.763,140.57 225.591,141.699 228.419,142.913 231.247,144.211 234.075,145.592 236.903,147.054 239.731,148.596 242.559,150.216 245.386,151.913 248.214,153.685 251.042,155.529 253.87,157.446 256.698,159.432 259.526,161.485 262.354,163.604 265.182,165.787 268.009,168.031 270.837,170.334 273.665,172.693 276.493,175.107 279.321,177.574 282.149,180.09 284.977,182.653 287.805,185.261 290.632,187.911 293.46,190.6 296.288,193.326 299.116,196.087 301.944,198.878 304.772,201.699 307.6,204.545 310.428,207.414 313.255,210.304 316.083,213.21 318.911,216.132 321.739,219.065 324.567,222.006 327.395,224.954 330.223,227.904" stroke-width="0.5" fill="none"/>
   <polyline stroke="#ff0000" stroke-linecap="butt" stroke-linejoin="round" points="47.4353,227.904 50.2632,224.953 53.091,222.004 55.9189,219.061 58.7468,216.127 61.5747,213.205 64.4025,210.297 67.2304,207.406 70.0583,204.536 72.8862,201.688 75.714,198.867 78.5419,196.074 81.3698,193.313 84.1976,190.585 87.0255,187.895 89.8534,185.244 92.6813,182.635 95.5091,180.071 98.337,177.554 101.165,175.087 103.993,172.672 106.821,170.311 109.648,168.007 112.476,165.763 115.304,163.579 118.132,161.459 120.96,159.405 123.788,157.418 126.616,155.501 129.444,153.656 132.271,151.883 135.099,150.186 137.927,148.565 140.755,147.023 143.583,145.56 146.411,144.179 149.239,142.88 152.067,141.665 154.894,140.536 157.722,139.492 160.55,138.536 163.378,137.668 166.206,136.889 169.034,136.2 171.862,135.601 174.69,135.094 177.517,134.678 180.345,134.354 183.173,134.122 186.001,133.983 188.829,133.937 191.657,133.983 194.485,134.122 197.313,134.354 200.14,134.678 202.968,135.094 205.796,135.601 208.624,136.2 211.452,136.889 214.28,137.668 217.108,138.536 219.936,139.492 222.763,140.536 225.591,141.665 228.419,142.88 231.247,144.179 234.075,145.56 236.903,147.023 239.731,148.565 242.559,150.186 245.386,151.883 248.214,153.656 251.042,155.501 253.87,157.418 256.698,159.405 259.526,161.459 262.354,163.579 265.182,165.763 268.009,168.007 270.837,170.311 273.665,172.672 276.493,175.087 279.321,177.554 282.149,180.071 284.977,182.635 287.805,185.244 290.632,187.895 293.46,190.585 296.288,193.313 299.116,196.074 301.944,198.867 304.772,201.688 307.6,204.536 310.428,207.406 313.255,210.297 316.083,213.205 318.911,216.127 321.739,219.061 324.567,222.004 327.395,224.953 330.223,227.904" stroke-width="0.5" fill="none"/>
   <polyline stroke="#000000" stroke-linecap="butt" stroke-linejoin="round" points="47.4353,227.904 50.2632,225.482 53.091,223.062 55.9189,220.647 58.7468,218.239 61.5747,215.84 64.4025,213.453 67.2304,211.081 70.0583,208.725 72.8862,206.388 75.714,204.073 78.5419,201.781 81.3698,199.514 84.1976,197.276 87.0255,195.068 89.8534,192.892 92.6813,190.751 95.5091,188.647 98.337,186.581 101.165,184.556 103.993,182.574 106.821,180.636 109.648,178.746 112.476,176.903 115.304,175.111 118.132,173.372 120.96,171.686 123.788,170.055 126.616,168.482 129.444,166.967 132.271,165.512 135.099,164.119 137.927,162.789 140.755,161.523 143.583,160.323 146.411,159.189 149.239,158.123 152.067,157.126 154.894,156.199 157.722,155.343 160.55,154.558 163.378,153.845 166.206,153.206 169.034,152.641 171.862,152.149 174.69,151.733 177.517,151.391 180.345,151.126 183.173,150.935 186.001,150.821 188.829,150.783 191.657,150.821 194.485,150.935 197.313,151.126 200.14,151.391 202.968,151.733 205.796,152.149 208.624,152.641 211.452,153.206 214.28,153.845 217.108,154.558 219.936,155.343 222.763,156.199 225.591,157.126 228.419,158.123 231.247,159.189 234.075,160.323 236.903,161.523 239.731,162.789 242.559,164.119 245.386,165.512 248.214,166.967 251.042,168.482 253.87,170.055 256.698,171.686 259.526,173.372 262.354,175.111 265.182,176.903 268.009,178.746 270.837,180.636 273.665,182.574 276.493,184.556 279.321,186.581 282.149,188.647 284.977,190.751 287.805,192.892 290.632,195.068 293.46,197.276 296.288,199.514 299.116,201.781 301.944,204.073 304.772,206.388 307.6,208.725 310.428,211.081 313.255,213.453 316.083,215.84 318.911,218.239 321.739,220.647 324.567,223.062 327.395,225.482 330.223,227.904" stroke-width="0.5" fill="none"/>
   <polyline stroke="#0000ff" stroke-linecap="butt" stroke-linejoin="round" points="47.4353,227.904 50.2632,225.483 53.091,223.063 55.9189,220.648 58.7468,218.241 61.5747,215.843 64.4025,213.457 67.2304,211.085 70.0583,208.73 72.8862,206.394 75.714,204.078 78.5419,201.787 81.3698,199.521 84.1976,197.283 87.0255,195.076 89.8534,192.901 92.6813,190.76 95.5091,188.656 98.337,186.591 101.165,184.566 103.993,182.585 106.821,180.648 109.648,178.758 112.476,176.916 115.304,175.124 118.132,173.385 120.96,171.699 123.788,170.069 126.616,168.496 129.444,166.982 132.271,165.527 135.099,164.135 137.927,162.805 140.755,161.539 143.583,160.339 146.411,159.206 149.239,158.14 152.067,157.143 154.894,156.216 157.722,155.36 160.55,154.576 163.378,153.863 166.206,153.224 169.034,152.659 171.862,152.168 174.69,151.751 177.517,151.41 180.345,151.144 183.173,150.954 186.001,150.84 188.829,150.802 191.657,150.84 194.485,150.954 197.313,151.144 200.14,151.41 202.968,151.751 205.796,152.168 208.624,152.659 211.452,153.224 214.28,153.863 217.108,154.576 219.936,155.36 222.763,156.216 225.591,157.143 228.419,158.14 231.247,159.206 234.075,160.339 236.903,161.539 239.731,162.805 242.559,164.135 245.386,165.527 248.214,166.982 251.042,168.496 253.87,170.069 256.698,171.699 259.526,173.385 262.354,175.124 265.182,176.916 268.009,178.758 270.837,180.648 273.665,182.585 276.493,184.566 279.321,186.591 282.149,188.656 284.977,190.76 287.805,192.901 290.632,195.076 293.46,197.283 296.288,199.521 299.116,201.787 301.944,204.078 304.772,206.394 307.6,208.73 310.428,211.085 313.255,213.457 316.083,215.843 318.911,218.241 321.739,220.648 324.567,223.063 327.395,225.483 330.223,227.904" stroke-width="0.5" fill="none"/>
   <polyline stroke="#ff0000" stroke-linecap="butt" stroke-linejoin="round" points="47.4353,227.904 50.2632,225.481 53.091,223.061 55.9189,220.645 58.7468,218.236 61.5747,215.837 64.4025,213.45 67.2304,211.077 70.0583,208.721 72.8862,206.383 75.714,204.067 78.5419,201.774 81.3698,199.507 84.1976,197.268 87.0255,195.06 89.8534,192.884 92.6813,190.742 95.5091,188.637 98.337,186.571 101.165,184.545 103.993,182.563 106.821,180.625 109.648,178.734 112.476,176.891 115.304,175.099 118.132,173.358 120.96,171.672 123.788,170.041 126.616,168.467 129.444,166.952 132.271,165.497 135.099,164.103 137.927,162.773 140.755,161.507 143.583,160.306 146.411,159.172 149.239,158.106 152.067,157.109 154.894,156.182 157.722,155.325 160.55,154.54 163.378,153.827 166.206,153.188 169.034,152.622 171.862,152.131 174.69,151.714 177.517,151.373 180.345,151.107 183.173,150.917 186.001,150.803 188.829,150.764 191.657,150.803 194.485,150.917 197.313,151.107 200.14,151.373 202.968,151.714 205.796,152.131 208.624,152.622 211.452,153.188 214.28,153.827 217.108,154.54 219.936,155.325 222.763,156.182 225.591,157.109 228.419,158.106 231.247,159.172 234.075,160.306 236.903,161.507 239.731,162.773 242.559,164.103 245.386,165.497 248.214,166.952 251.042,168.467 253.87,170.041 256.698,171.672 259.526,173.358 262.354,175.099 265.182,176.891 268.009,178.734 270.837,180.625 273.665,182.563 276.493,184.545 279.321,186.571 282.149,188.637 284.977,190.742 287.805,192.884 290.632,195.06 293.46,197.268 296.288,199.507 299.116,201.774 301.944,204.067 304.772,206.383 307.6,208.721 310.428,211.077 313.255,213.45 316.083,215.837 318.911,218.236 321.739,220.645 324.567,223.061 327.395,225.481 330.223,227.904" stroke-width="0.5" fill="none"/>
  </g>
 </g>
</svg>
